<?xml version="1.0" encoding="UTF-8"?>
<svg width="25px" height="25px" viewBox="0 0 25 25" version="1.1" xmlns="http://www.w3.org/2000/svg" xmlns:xlink="http://www.w3.org/1999/xlink">
    <!-- Generator: Sketch 46 (44423) - http://www.bohemiancoding.com/sketch -->
    <title>logos/social media/slack</title>
    <desc>Created with Sketch.</desc>
    <defs></defs>
    <g id="Page-1" stroke="none" stroke-width="1" fill="none" fill-rule="evenodd">
        <g id="WT_landing_B-Copy" transform="translate(-85.000000, -545.000000)" fill="#202020">
            <g id="Header-Info" transform="translate(30.000000, 425.000000)">
                <g id="social-media" transform="translate(0.000000, 120.000000)">
                    <g id="logos/social-media/slack" transform="translate(55.000000, 0.000000)">
                        <path d="M20.7350039,16.5310994 L21.5788239,19.0461517 C21.9186958,20.0634235 21.3678689,21.1650774 20.350597,21.5072933 C20.1162026,21.5776116 19.9052476,21.6127708 19.6708531,21.605739 C18.873912,21.5822995 18.1472893,21.0760075 17.866016,20.2790664 L17.022196,17.7663581 L12.006155,19.4446222 L12.849975,21.9573306 C13.1781272,22.9769464 12.63902,24.0786003 11.6076845,24.4184722 C11.37329,24.4934784 11.162335,24.5239497 10.9279406,24.5192618 C10.1309995,24.4958224 9.40437674,23.9895304 9.12310341,23.1925893 L8.27928344,20.6611294 L5.84158128,21.4815099 C5.60718684,21.5518282 5.39623185,21.5752677 5.16183741,21.5752677 C4.36489632,21.5518282 3.63827356,21.0361605 3.35700024,20.2392194 C3.00540858,19.2078838 3.56795523,18.10623 4.57585131,17.7780778 L7.01355347,16.9576972 L5.46889412,12.1315158 L3.04525563,12.9518963 C2.82492486,13.0269025 2.5999062,13.0573738 2.37723149,13.0526859 C1.60372984,13.0292465 0.853667638,12.5252984 0.595833756,11.7283573 C0.267681543,10.7134294 0.80678875,9.61177555 1.83812428,9.26721573 L4.27582643,8.45621097 L3.43200646,5.94819049 C3.10385424,4.92623074 3.64296145,3.82457688 4.67429698,3.48704889 C5.70563251,3.14248906 6.80728637,3.69800388 7.13543858,4.71058785 L7.97925856,7.22329623 L12.9695161,5.54503205 L12.1256962,3.03701157 C11.797544,2.02911548 12.3366512,0.927461622 13.3586109,0.575869965 C14.3782267,0.247717752 15.4822245,0.786824959 15.8197525,1.8134726 L16.6635725,4.34493253 L19.0942428,3.54799144 C20.1115147,3.20577556 21.2131685,3.75894643 21.5553844,4.76684252 C21.8952563,5.78880227 21.3444294,6.89045613 20.3295015,7.22798412 L17.8964872,8.04836465 L19.5138089,12.8698582 L21.9374473,12.0635414 C22.9570631,11.7353892 24.058717,12.2744964 24.3985889,13.3058319 C24.7408048,14.3371674 24.1876339,15.4388213 23.1797379,15.7669735 L20.7350039,16.5310994 Z M9.18638991,10.9361041 L10.8037115,15.7575977 L15.8127207,14.0793335 L14.1953991,9.27424756 L9.18638991,10.9618875 L9.18638991,10.9361041 Z"></path>
                    </g>
                </g>
            </g>
        </g>
    </g>
</svg>