<?xml version="1.0" encoding="UTF-8"?>
<svg width="25px" height="25px" viewBox="0 0 25 25" version="1.1" xmlns="http://www.w3.org/2000/svg" xmlns:xlink="http://www.w3.org/1999/xlink">
    <!-- Generator: Sketch 46 (44423) - http://www.bohemiancoding.com/sketch -->
    <title>logos/social media/Ycombinator</title>
    <desc>Created with Sketch.</desc>
    <defs></defs>
    <g id="Symbols" stroke="none" stroke-width="1" fill="none" fill-rule="evenodd">
        <g id="logos/social-media/Ycombinator" fill="#000000">
            <path d="M13.3080078,14.2324219 L13.3080078,19.4166016 L11.6576172,19.4166016 L11.6576172,14.1353516 L7.36650391,6.09677734 L9.32763672,6.09677734 L11.8517578,11.1839844 C11.890625,11.2746094 11.9359375,11.368457 11.9876953,11.4655273 C12.0394531,11.5625977 12.0847656,11.6628906 12.1236328,11.7665039 C12.1495117,11.8052734 12.1688477,11.840918 12.1818359,11.8732422 C12.1948242,11.9056641 12.2077148,11.9347656 12.2207031,11.9606445 C12.2853516,12.0901367 12.3436523,12.2163086 12.3954102,12.3392578 C12.4472656,12.4623047 12.4924805,12.5754883 12.5313477,12.6791016 C12.6348633,12.4589844 12.7481445,12.2227539 12.8710938,11.9703125 C12.9941406,11.7178711 13.1203125,11.4557617 13.249707,11.1839844 L15.8126953,6.09677734 L17.6378906,6.09677734 L13.3080078,14.2324219 Z M0,25 L25,25 L25,0 L0,0 L0,25 Z" id="ycombinator"></path>
        </g>
    </g>
</svg>