<?xml version="1.0" encoding="UTF-8"?>
<svg width="25px" height="25px" viewBox="0 0 25 25" version="1.1" xmlns="http://www.w3.org/2000/svg" xmlns:xlink="http://www.w3.org/1999/xlink">
    <!-- Generator: Sketch 46 (44423) - http://www.bohemiancoding.com/sketch -->
    <title>logos/social media/linkedin</title>
    <desc>Created with Sketch.</desc>
    <defs></defs>
    <g id="Symbols" stroke="none" stroke-width="1" fill="none" fill-rule="evenodd">
        <g id="logos/social-media/linkedin" fill="#202020">
            <path d="M18.615024,8.04129808 C23.8140625,8.04129808 24.7739183,11.4629327 24.7739183,15.9105288 L24.7739183,24.9715865 L19.643149,24.9715865 L19.643149,16.9379327 C19.643149,15.0225481 19.6080529,12.558125 16.9751202,12.558125 C14.303726,12.558125 13.8936298,14.6449038 13.8936298,16.7994712 L13.8936298,24.9715865 L8.7640625,24.9715865 L8.7640625,8.451875 L13.688101,8.451875 L13.688101,10.7093269 L13.756851,10.7093269 C14.4424279,9.41052885 16.1171875,8.04129808 18.615024,8.04129808 Z M0.408894231,24.9716346 L0.408894231,8.45192308 L5.54350962,8.45192308 L5.54350962,24.9716346 L0.408894231,24.9716346 Z M2.97735577,0.240432692 C4.61894231,0.240432692 5.95283654,1.57432692 5.95283654,3.21639423 C5.95283654,4.85990385 4.61894231,6.19379808 2.97735577,6.19379808 C1.33168269,6.19379808 -4.80769231e-05,4.85990385 -4.80769231e-05,3.21639423 C-4.80769231e-05,1.57432692 1.33168269,0.240432692 2.97735577,0.240432692 Z" id="Fill-4"></path>
        </g>
    </g>
</svg>