<svg xmlns="http://www.w3.org/2000/svg" width="100" height="120" viewBox="0 0 100 120">
    <g fill="none" fill-rule="evenodd">
        <path fill="#FFF" d="M0 0v120h100V30.05L70.18.172 70.008 0z"/>
        <path fill="#222" d="M21.039 93.94v-1.28h59.298v1.28H21.039zm0 8.887v-1.282h59.298v1.282H21.039zM51.794 64.69a.608.608 0 0 1 .858.858l-4.29 4.292a.606.606 0 1 1-.859-.858l4.291-4.292zm-8.35 10.085a.625.625 0 1 1 0-1.252h1.607c.723 0 .894-.11 1.271-.488l5.472-5.34a.606.606 0 1 1 .858.857l-5.078 5.079c-1.144 1.144-1.252 1.144-2.504 1.144h-1.627zm5.453-14.449a.608.608 0 0 1-.858 0l-2.79-2.789a.484.484 0 0 1-.044-.056 7.186 7.186 0 0 1-1.619-2.045 15.3 15.3 0 0 0 1.215-.388l.008.015c.406.714.737 1.06 1.445 1.762l2.643 2.643a.607.607 0 0 1 0 .858zM21.04 85.056v-1.282h59.298v1.282H21.039zm31.292-38.07c0-.078.002-.143.005-.201.964 1.276 2.42 1.473 2.88 2.269a5.964 5.964 0 0 1 .783 3.468 6.01 6.01 0 0 1-3.668-5.536zm-4.829 15.987a.608.608 0 0 0 .86.858l7.325-7.325c.078-.078.165-.171.323-.37a7.281 7.281 0 0 0 .904-1.864c.22-.884.311-2.018.338-2.738a7.216 7.216 0 0 0-.952-3.106c-1.1-1.906-2.661-.791-3.962-3.799-.338.029-.46.241-.597.334-.276.568-.458 1.446-.458 2.023 0 3.094 1.814 5.733 4.484 6.779a6.058 6.058 0 0 1-.958 1.902l-7.307 7.306zm7.982-20.506a3.3 3.3 0 0 1-.292-.186c1.457-.285 2.304-1.304 3.148-1.304 1.349 0 2.591.45 3.594 1.203a6.006 6.006 0 0 1-6.45.287m3.105 10.522c-.038.4-.094.832-.17 1.256a7.26 7.26 0 0 0 5.382-12.04.023.023 0 0 1 .007-.007c-.354-.369-.774-.74-1.168-1.06a7.228 7.228 0 0 0-4.3-1.412c-2.201 0-2.015 1.908-5.27 1.53-.162.34.108.808.23.901.59.45.657.888 1.558 1.395 2.624 1.473 5.758 1.208 8.016-.5a5.983 5.983 0 0 1 1.474 3.934 6.008 6.008 0 0 1-5.76 6.003m-11.58-6.135a2.53 2.53 0 0 0 .208-.134c-.408 1.348.011 2.532-.396 3.238a5.98 5.98 0 0 1-2.798 2.495 6.003 6.003 0 0 1 2.986-5.599m-11.699-3.497a7.26 7.26 0 0 0 2.677 9.884 7.195 7.195 0 0 0 3.71.966c.043-.003.086-.003.13-.003a7.29 7.29 0 0 0 1.209-.137 12.7 12.7 0 0 0 1.21-.35 7.221 7.221 0 0 0 3.658-3.133c1.101-1.906-.645-2.7 1.309-5.33-.218-.315-.474-.444-.748-.46-.176.122-.405.28-.533.315-.53.159-1.05.372-1.549.66a7.264 7.264 0 0 0-3.588 7.071 5.979 5.979 0 0 1-4.183-.683 6.01 6.01 0 0 1-2.328-7.97 15 15 0 0 1-.974-.83m17.795-5.532c-.255.146-.306.2-.398.248.815-1.59.104-2.991.579-3.814a5.973 5.973 0 0 1 2.761-2.48 6.007 6.007 0 0 1-2.942 6.046m-.904-4.191c-1.1 1.905.646 2.699-1.308 5.329.218.316.58.335.854.352.433-.056 1.751-.337 2.076-.524 2.702-1.574 3.935-4.49 3.434-7.402a5.978 5.978 0 0 1 4.236.67 6.008 6.008 0 0 1 2.248 8.121c.312.251.644.539.96.84l.076-.127a7.261 7.261 0 0 0-2.658-9.918 7.227 7.227 0 0 0-5.182-.795l-.002-.004c-.406.104-.83.244-1.223.387a7.222 7.222 0 0 0-3.511 3.07m-8.052-1.79a6.005 6.005 0 0 1 3.372 5.392c0 .185.015.307.029.409-.969-1.073-2.239-1.299-2.653-2.019a5.969 5.969 0 0 1-.748-3.783m3.625 8.208c-1.3-3.007-2.86-1.892-3.96-3.798a7.229 7.229 0 0 1-.89-4.721c.088-.435.198-.905.333-1.344 0 0 .003 0 .005.002a7.258 7.258 0 0 1 13.035-1.348c-.432.131-.85.28-1.213.426a6.008 6.008 0 0 0-7.988-1.85 5.982 5.982 0 0 0-2.648 3.177 7.263 7.263 0 0 1 4.324 6.641c0 .577-.074 1.134-.201 1.672-.036.245-.062.47-.023.725-.152.23-.391.386-.774.418zm4.808 33.58l-1.323-1.323a.606.606 0 1 1 .859-.857s.28.183 1.716 1.585c.378.378.549.489 1.271.489h1.608a.625.625 0 1 1 0 1.251h-1.628c-1.25 0-1.359 0-2.503-1.144zm-7.96-31.88c.12.07.212.112.292.147-1.617.203-2.51 1.347-3.402 1.347a5.977 5.977 0 0 1-3.476-1.114 6.007 6.007 0 0 1 6.586-.38m-8.456.409l.006-.007a7.26 7.26 0 0 1 5.628-12.17 15.23 15.23 0 0 0-.277 1.245h-.01a6.008 6.008 0 0 0-6.01 6.009c0 1.563.603 2.983 1.583 4.052a7.256 7.256 0 0 1 8.161-.622c.47.274.949.958 1.56 1.42.123.245.14.531-.025.878-3.254-.378-3.069 1.53-5.27 1.53a7.22 7.22 0 0 1-4.415-1.497l-.001.002c-.314-.261-.639-.549-.93-.84zm16.487 19.526a.607.607 0 0 1 0 .86l-4.29 4.29a.607.607 0 0 1-.86-.858l4.293-4.292a.608.608 0 0 1 .857 0zM0 0v120h100V30.05L70.18.172 70.008 0H0zm1.17 1.17h68.006v29.654H98.83v87.772H1.17V1.169zm69.187.832l27.64 27.64h-27.64V2.002z"/>
    </g>
</svg>
