<svg xmlns="http://www.w3.org/2000/svg" width="101" height="120" viewBox="0 0 101 120">
    <g fill="none" fill-rule="evenodd">
        <path fill="#FFF" d="M89.874 119.004H17.42c3.703-1.687 6.325-5.348 6.514-9.63h76.066c-.261 5.355-4.703 9.63-10.124 9.63zm-77.748 0c-5.588 0-10.135-4.543-10.135-10.126V.996h86.03V108.38H22.953v.498c0 5.583-4.546 10.126-10.135 10.126h-.692z"/>
        <path fill="#222" d="M16.501 96.078v-1.284h59.406v1.284H16.501zm32.36-42.206a.609.609 0 0 1 0 .86l-4.3 4.3a.609.609 0 0 1-.86-.86l4.3-4.3a.609.609 0 0 1 .86 0zm-9.226 13.114a.627.627 0 0 1 0-1.254h1.611c.724 0 .895-.11 1.273-.489l5.483-5.352a.609.609 0 0 1 .86.861l-5.088 5.088c-1.147 1.146-1.255 1.146-2.509 1.146h-1.63zm8.367-10.104a.609.609 0 0 1 .86.86l-4.3 4.299a.609.609 0 0 1-.86-.86l4.3-4.3zM45.1 52.51a.609.609 0 0 1-.86 0l-2.795-2.795c-.017-.018-.03-.036-.045-.055a7.188 7.188 0 0 1-1.621-2.05c.425-.116.843-.251 1.217-.388l.008.014c.407.716.738 1.063 1.448 1.766L45.1 51.65a.609.609 0 0 1 0 .86zM16.5 78.275v-1.284h59.406v1.284H16.501zm0 8.902v-1.283h59.406v1.283H16.501zm32.813-57.208c-.256.147-.307.2-.399.248.816-1.594.104-2.997.58-3.82a5.982 5.982 0 0 1 2.767-2.485 6.02 6.02 0 0 1-2.948 6.057m-.905-4.2c-1.103 1.909.646 2.705-1.311 5.34.218.316.58.336.856.352.434-.055 1.754-.337 2.078-.525 2.707-1.576 3.944-4.498 3.442-7.414a5.98 5.98 0 0 1 4.243.67 6.019 6.019 0 0 1 2.253 8.136c.311.25.643.539.961.842l.076-.127a7.274 7.274 0 0 0-2.663-9.936 7.23 7.23 0 0 0-5.191-.798l-.002-.004c-.407.105-.832.245-1.225.389a7.222 7.222 0 0 0-3.517 3.076m-5.203 13.244c.086-.05.152-.093.21-.134-.41 1.349.01 2.536-.397 3.243a5.984 5.984 0 0 1-2.803 2.499 6.016 6.016 0 0 1 2.99-5.608m-11.72-3.502a7.273 7.273 0 0 0 2.681 9.9 7.211 7.211 0 0 0 3.72.969c.041-.003.084-.004.129-.003a7.233 7.233 0 0 0 1.21-.138c.398-.09.816-.216 1.212-.35a7.23 7.23 0 0 0 3.665-3.14c1.103-1.91-.647-2.704 1.311-5.34-.218-.315-.474-.444-.75-.46-.175.123-.404.28-.532.316a7.3 7.3 0 0 0-1.552.662 7.273 7.273 0 0 0-3.594 7.082 5.986 5.986 0 0 1-4.19-.684 6.018 6.018 0 0 1-2.334-7.984c-.308-.24-.646-.525-.976-.83m20.212-.893a3.272 3.272 0 0 1-.292-.187c1.459-.285 2.308-1.306 3.153-1.306 1.352 0 2.596.452 3.6 1.205a6.016 6.016 0 0 1-6.461.288m3.11 10.541c-.036.4-.092.834-.17 1.26a7.274 7.274 0 0 0 5.393-12.064l.006-.008a13.347 13.347 0 0 0-1.17-1.06 7.234 7.234 0 0 0-4.308-1.416c-2.205 0-2.02 1.913-5.28 1.535-.161.34.109.808.23.9.592.452.66.89 1.562 1.398 2.629 1.477 5.769 1.212 8.03-.5a5.99 5.99 0 0 1 1.477 3.941 6.02 6.02 0 0 1-5.77 6.014M40.342 23.975a6.013 6.013 0 0 1 3.378 5.403c0 .185.016.306.03.409-.97-1.074-2.243-1.302-2.658-2.021a5.986 5.986 0 0 1-.75-3.791m3.632 8.223c.383-.032.623-.19.775-.42-.04-.255-.012-.48.023-.725a7.232 7.232 0 0 0 .202-1.675 7.274 7.274 0 0 0-4.333-6.653 5.995 5.995 0 0 1 2.654-3.182 6.02 6.02 0 0 1 8.002 1.852c.364-.146.783-.295 1.214-.427a7.273 7.273 0 0 0-9.843-2.512 7.248 7.248 0 0 0-3.215 3.863l-.005-.002c-.134.438-.245.91-.333 1.346a7.241 7.241 0 0 0 .891 4.73c1.102 1.909 2.665.792 3.968 3.805m4.566 6.949c0-.08.002-.143.005-.203.966 1.278 2.425 1.476 2.885 2.273a5.964 5.964 0 0 1 .784 3.474 6.02 6.02 0 0 1-3.674-5.544zm-4.837 16.016l7.32-7.32a6.01 6.01 0 0 0 .96-1.906c-2.675-1.047-4.493-3.691-4.493-6.79 0-.578.183-1.459.46-2.026.136-.095.258-.309.597-.336 1.304 3.013 2.867 1.897 3.97 3.806.568.986.878 2.047.953 3.111-.027.721-.118 1.858-.339 2.744a7.25 7.25 0 0 1-.905 1.867 3.884 3.884 0 0 1-.324.37l-7.339 7.339a.607.607 0 1 1-.86-.86zM48.79 65.84l-1.326-1.326a.609.609 0 0 1 .86-.86s.281.184 1.72 1.589c.379.378.55.49 1.273.49h1.612a.627.627 0 1 1 0 1.253h-1.631c-1.254 0-1.362 0-2.508-1.146zM40.815 33.9c.12.07.213.113.294.147-1.62.205-2.516 1.35-3.409 1.35-1.3 0-2.5-.416-3.483-1.116a6.018 6.018 0 0 1 6.598-.38m-8.471.41c.291.29.617.58.931.84 0 0 0-.002.002-.002a7.24 7.24 0 0 0 4.423 1.502c2.204 0 2.018-1.913 5.28-1.535.165-.347.148-.633.025-.88-.613-.462-1.093-1.148-1.564-1.422a7.27 7.27 0 0 0-8.175.623 5.99 5.99 0 0 1-1.585-4.059 6.019 6.019 0 0 1 6.02-6.02h.01c.069-.384.162-.814.276-1.248a7.274 7.274 0 0 0-5.638 12.192l-.006.008m57.531 84.694H17.42c3.703-1.687 6.325-5.348 6.514-9.63h76.066c-.261 5.355-4.703 9.63-10.124 9.63zm-77.748 0c-5.588 0-10.135-4.543-10.135-10.126V.996h86.03V108.38H22.953v.498c0 5.583-4.546 10.126-10.135 10.126h-.692zM89.01 108.38V0H1v108.878C1 115.01 5.992 120 12.125 120h77.748C96.01 120 101 115.01 101 108.878v-.498H89.01z"/>
    </g>
</svg>
