<?xml version="1.0" encoding="UTF-8"?>
<svg width="420px" height="350px" viewBox="0 0 420 350" version="1.1" xmlns="http://www.w3.org/2000/svg" xmlns:xlink="http://www.w3.org/1999/xlink">
    <!-- Generator: Sketch 46 (44423) - http://www.bohemiancoding.com/sketch -->
    <title>Illustrations/LifToken</title>
    <desc>Created with Sketch.</desc>
    <defs>
        <linearGradient x1="38.6709091%" y1="0.696446281%" x2="61.7606612%" y2="101.048099%" id="linearGradient-1">
            <stop stop-color="#FF941D" offset="12.43%"></stop>
            <stop stop-color="#FFD839" offset="53.6%"></stop>
            <stop stop-color="#FFA223" offset="92.02%"></stop>
        </linearGradient>
        <linearGradient x1="51.1079399%" y1="1.24227468%" x2="47.6761803%" y2="148.812017%" id="linearGradient-2">
            <stop stop-color="#5FD7B1" offset="0%"></stop>
            <stop stop-color="#87EA81" offset="100%"></stop>
        </linearGradient>
        <linearGradient x1="51.2544936%" y1="0.448714286%" x2="48.9730385%" y2="98.688%" id="linearGradient-3">
            <stop stop-color="#5FD7B1" offset="0%"></stop>
            <stop stop-color="#87EA81" offset="100%"></stop>
        </linearGradient>
        <linearGradient x1="50.1826318%" y1="440.004%" x2="50.1826318%" y2="46.0515%" id="linearGradient-4">
            <stop stop-color="#5FD7B1" offset="0%"></stop>
            <stop stop-color="#87EA81" offset="100%"></stop>
        </linearGradient>
        <linearGradient x1="50.3652637%" y1="96.668%" x2="50.3652637%" y2="-34.6495%" id="linearGradient-5">
            <stop stop-color="#5FD7B1" offset="0%"></stop>
            <stop stop-color="#87EA81" offset="100%"></stop>
        </linearGradient>
        <linearGradient x1="50.0608773%" y1="97.7785556%" x2="50.0608773%" y2="10.2336667%" id="linearGradient-6">
            <stop stop-color="#5FD7B1" offset="0%"></stop>
            <stop stop-color="#87EA81" offset="100%"></stop>
        </linearGradient>
        <linearGradient x1="49.8940439%" y1="97.7786667%" x2="49.8940439%" y2="10.2336667%" id="linearGradient-7">
            <stop stop-color="#5FD7B1" offset="0%"></stop>
            <stop stop-color="#87EA81" offset="100%"></stop>
        </linearGradient>
        <linearGradient x1="50.1159375%" y1="83.9450078%" x2="50.1159375%" y2="23.7652496%" id="linearGradient-8">
            <stop stop-color="#5FD7B1" offset="0%"></stop>
            <stop stop-color="#87EA81" offset="100%"></stop>
        </linearGradient>
        <linearGradient x1="50.089375%" y1="63.2543959%" x2="47.9746875%" y2="-20.9397429%" id="linearGradient-9">
            <stop stop-color="#5FD7B1" offset="0%"></stop>
            <stop stop-color="#87EA81" offset="100%"></stop>
        </linearGradient>
    </defs>
    <g id="Symbols" stroke="none" stroke-width="1" fill="none" fill-rule="evenodd">
        <g id="Illustrations/LifToken">
            <g>
                <rect id="420x350" x="0" y="0" width="420" height="350"></rect>
                <g id="LifToken" transform="translate(10.000000, 10.000000)" fill-rule="nonzero">
                    <g id="Group" transform="translate(119.000000, 199.000000)" fill="#DEEEFC">
                        <path d="M75.1,10.8 L75.1,20.8 L85.1,20.8 C90.6,20.8 95.1,16.3 95.1,10.8 L95.1,0.8 L85.1,0.8 C79.6,0.8 75.1,5.3 75.1,10.8 Z" id="Shape"></path>
                        <path d="M75.1,35.8 L75.1,40.8 L75.1,80.8 L75.1,85.8 C75.1,88.5 77.3,90.8 80.1,90.8 L85.1,90.8 L85.1,85.8 L85.1,35.8 L85.1,30.8 L80.1,30.8 C77.4,30.8 75.1,33.1 75.1,35.8 Z" id="Shape"></path>
                        <path d="M165.5,0.8 L120.1,0.8 L115.1,0.8 L115.1,0.8 L110.1,0.8 L110.1,5.8 L110.1,10.8 L110.1,30.8 L110.1,40.8 L110.1,85.8 L110.1,90.8 L115.1,90.8 C117.8,90.8 120.1,88.6 120.1,85.8 L120.1,80.8 L120.1,40.8 L140.1,40.8 L145.1,40.8 C147.8,40.8 150.1,38.6 150.1,35.8 L150.1,30.8 L145.1,30.8 L120.1,30.8 L120.1,10.8 L161,10.8 L165.6,10.8 C168.1,10.8 170.2,8.6 170.2,5.8 L170.2,0.8 L165.5,0.8 Z" id="Shape"></path>
                        <path d="M55.2,80.8 L50.2,80.8 L10.2,80.8 L10.2,10.8 L10.2,5.8 C10.2,3 8,0.8 5.2,0.8 L0.2,0.8 L0.2,5.8 L0.2,80.8 L0.2,85.8 L0.2,90.8 L5.2,90.8 L10.2,90.8 L55.2,90.8 L60.2,90.8 L60.2,85.8 C60.1,83.1 57.9,80.8 55.2,80.8 Z" id="Shape"></path>
                    </g>
                    <path d="M101.4,21.1 C101.4,9.5 92,0.1 80.4,0.1 C68.8,0.1 59.4,9.5 59.4,21.1 L59.4,21.1 L59.4,26.6 L59.4,26.6 C59.5,27.7 59.6,28.8 59.8,29.9 C61,35.4 64.2,40.1 68.9,43.2 C72.4,45.4 76.3,46.6 80.3,46.6 C81.8,46.6 83.2,46.4 84.7,46.1 C94.4,44.1 101.4,35.4 101.4,25.6 L101.4,21.1 L101.4,21.1 Z" id="Shape" fill="#FFF48A"></path>
                    <path d="M399.4,134.6 C399.4,123 390,113.6 378.4,113.6 C366.8,113.6 357.4,123 357.4,134.6 L357.4,134.6 L357.4,140.1 L357.4,140.1 C357.5,141.2 357.6,142.3 357.8,143.4 C359,148.9 362.2,153.6 366.9,156.7 C370.4,158.9 374.3,160.1 378.3,160.1 C379.8,160.1 381.2,159.9 382.7,159.6 C392.4,157.6 399.4,148.9 399.4,139.1 L399.4,134.6 L399.4,134.6 Z" id="Shape" fill="#FFF48A"></path>
                    <path d="M64,165 L79.1,165 C87.3,165 94,158.3 94,150.1 L94,135 L79,135 C70.7,135 64,141.7 64,150 L64,165 Z" id="Shape" fill="#DFF79C"></path>
                    <path d="M366.9,228.4 L382,228.4 C390.2,228.4 396.9,221.7 396.9,213.5 L396.9,198.4 L381.8,198.4 C373.5,198.4 366.9,205.1 366.9,213.3 L366.9,228.4 Z" id="Shape" fill="#DFF79C"></path>
                    <path d="M316.8,274.4 L306.8,274.4 C301.3,274.4 296.8,269.9 296.8,264.4 L296.8,254.4 L306.8,254.4 C312.3,254.4 316.8,258.9 316.8,264.4 L316.8,274.4 Z" id="Shape" fill="#DFF79C"></path>
                    <path d="M340.1,103.4 L325.3,103.4 C317.2,103.4 310.6,96.8 310.6,88.7 L310.6,73.8 L325.4,73.8 C333.5,73.8 340.1,80.4 340.1,88.5 L340.1,103.4 Z" id="Shape" fill="#DFF79C"></path>
                    <path d="M32.4,80.7 L17.6,80.7 C9.5,80.7 2.9,74.1 2.9,66 L2.9,51.2 L17.7,51.2 C25.8,51.2 32.4,57.8 32.4,65.9 L32.4,80.7 L32.4,80.7 Z" id="Shape" fill="#DFF79C"></path>
                    <g id="Group" transform="translate(128.000000, 16.000000)">
                        <path d="M143,71.3 C143,32.2 111.2,0.3 72,0.3 C32.8,0.3 1,32.1 1,71.3 L1,71.3 L1,81.5 L1,82.5 L1,82.5 C1.1,87.1 1.6,91.7 2.5,96.2 C6.4,114.8 17.3,130.7 33.2,141 C44.9,148.6 58.2,152.5 71.8,152.5 C76.7,152.5 81.7,152 86.6,150.9 C118.9,144.1 142.5,115.4 142.9,82.4 L142.9,71.3 L143,71.3 Z" id="Shape" fill="#FFFFFF"></path>
                        <path d="M71.9,10.8 C38.5,10.8 11.4,37.9 11.4,71.3 C11.4,104.7 38.5,131.8 71.9,131.8 C105.3,131.8 132.4,104.7 132.4,71.3 C132.4,37.9 105.3,10.8 71.9,10.8 Z M71.9,129.8 C39.7,129.8 13.4,103.6 13.4,71.3 C13.4,39 39.6,12.8 71.9,12.8 C104.2,12.8 130.4,39 130.4,71.3 C130.4,103.6 104.2,129.8 71.9,129.8 Z" id="Shape" fill="url(#linearGradient-1)"></path>
                        <path d="M142.9,71.3 C142.9,32.2 111.1,0.3 71.9,0.3 C32.7,0.3 0.9,32.1 0.9,71.3 L0.9,71.3 L0.9,81.5 L0.9,82.5 L0.9,82.5 C1,87.1 1.5,91.7 2.4,96.2 C6.3,114.8 17.2,130.7 33.1,141 C44.8,148.6 58.1,152.5 71.7,152.5 C76.6,152.5 81.6,152 86.5,150.9 C118.8,144.1 142.4,115.4 142.8,82.4 L142.8,71.3 L142.9,71.3 Z M71.9,2.3 C109.9,2.3 140.9,33.2 140.9,71.3 C140.9,109.3 110,140.3 71.9,140.3 C33.8,140.3 2.9,109.4 2.9,71.3 C2.9,33.3 33.9,2.3 71.9,2.3 Z M86.2,149.1 C68.2,152.9 49.7,149.5 34.3,139.4 C18.9,129.3 8.3,113.9 4.5,95.8 C4.1,93.9 3.8,92.1 3.6,90.2 C11.9,120.2 39.4,142.3 72,142.3 C104.7,142.3 132.2,120.1 140.5,90 C136.8,118.8 115.1,142.9 86.2,149.1 Z" id="Shape" fill="#F15A29"></path>
                        <g transform="translate(36.000000, 35.000000)" id="Shape">
                            <path d="M47.5,0.2 C34.7,0.2 24.3,10.6 24.3,23.4 L24.3,46.8 L47.7,46.8 C60.5,46.8 70.9,36.4 70.9,23.6 L70.9,0.2 L47.5,0.2 Z" fill="url(#linearGradient-2)"></path>
                            <path d="M65.1,58.5 L59.2,58.5 L12.5,58.5 L12.5,11.8 L12.5,6 C12.5,2.8 9.9,0.2 6.7,0.2 L0.8,0.2 L0.8,6 L0.8,58.5 L0.8,70.2 L12.5,70.2 L65,70.2 L70.9,70.2 L70.9,64.3 C70.9,61.1 68.3,58.5 65.1,58.5 Z" fill="url(#linearGradient-3)"></path>
                        </g>
                    </g>
                    <path d="M399.4,134.6 C399.4,123 390,113.6 378.4,113.6 C366.8,113.6 357.4,123 357.4,134.6 L357.4,134.6 L357.4,140.1 L357.4,140.1 C357.5,141.2 357.6,142.3 357.8,143.4 C359,148.9 362.2,153.6 366.9,156.7 C370.4,158.9 374.3,160.1 378.3,160.1 C379.8,160.1 381.2,159.9 382.7,159.6 C392.4,157.6 399.4,148.9 399.4,139.1 L399.4,134.6 L399.4,134.6 Z M378.4,115.6 C388.9,115.6 397.4,124.1 397.4,134.6 C397.4,145.1 388.9,153.6 378.4,153.6 C367.9,153.6 359.4,145.1 359.4,134.6 C359.4,124.1 367.9,115.6 378.4,115.6 Z M382.3,157.7 C377.3,158.7 372.3,157.8 368,155 C364.5,152.7 361.9,149.4 360.5,145.6 C364.2,151.6 370.8,155.5 378.3,155.5 C385.8,155.5 392.4,151.5 396.1,145.5 C394,151.6 388.8,156.3 382.3,157.7 Z" id="Shape" fill="#F15A29"></path>
                    <path d="M101.4,21.1 C101.4,9.5 92,0.1 80.4,0.1 C68.8,0.1 59.4,9.5 59.4,21.1 C59.4,21.1 59.4,21.1 59.4,21.1 L59.4,21.1 L59.4,25.6 C59.4,27.1 59.6,28.5 59.9,29.9 C62,39.8 70.7,46.6 80.4,46.6 C81.8,46.6 83.3,46.5 84.7,46.1 C94.4,44.1 101.4,35.4 101.4,25.6 L101.4,21.1 L101.4,21.1 Z M80.4,2.1 C90.9,2.1 99.4,10.6 99.4,21.1 C99.4,31.6 90.9,40.1 80.4,40.1 C69.9,40.1 61.4,31.6 61.4,21.1 C61.4,10.6 69.9,2.1 80.4,2.1 Z M84.3,44.2 C79.3,45.2 74.3,44.3 70,41.5 C66.5,39.2 63.9,35.9 62.5,32.1 C66.2,38.1 72.8,42 80.3,42 C87.8,42 94.4,38 98.1,32 C96.1,38.1 90.9,42.8 84.3,44.2 Z" id="Shape" fill="#F15A29"></path>
                    <g id="Group" transform="translate(119.000000, 197.000000)">
                        <path d="M75.1,10.5 L75.1,20.5 L85.1,20.5 C90.6,20.5 95.1,16 95.1,10.5 L95.1,0.5 L85.1,0.5 C79.6,0.5 75.1,5 75.1,10.5 Z" id="Shape" fill="url(#linearGradient-4)"></path>
                        <path d="M75.1,35.5 L75.1,40.5 L75.1,80.5 L75.1,85.5 C75.1,88.2 77.3,90.5 80.1,90.5 L85.1,90.5 L85.1,85.5 L85.1,35.5 L85.1,30.5 L80.1,30.5 C77.4,30.5 75.1,32.8 75.1,35.5 Z" id="Shape" fill="url(#linearGradient-5)"></path>
                        <path d="M165.5,0.5 L120.1,0.5 L115.1,0.5 L115.1,0.5 L110.1,0.5 L110.1,5.5 L110.1,10.5 L110.1,30.5 L110.1,40.5 L110.1,85.5 L110.1,90.5 L115.1,90.5 C117.8,90.5 120.1,88.3 120.1,85.5 L120.1,80.5 L120.1,40.5 L140.1,40.5 L145.1,40.5 C147.8,40.5 150.1,38.3 150.1,35.5 L150.1,30.5 L145.1,30.5 L120.1,30.5 L120.1,10.5 L160.9,10.5 L165.5,10.5 C168,10.5 170.1,8.3 170.1,5.5 L170.1,0.5 L165.5,0.5 Z" id="Shape" fill="url(#linearGradient-6)"></path>
                        <path d="M55.2,80.5 L50.2,80.5 L10.2,80.5 L10.2,10.5 L10.2,5.5 C10.2,2.7 8,0.5 5.2,0.5 L0.2,0.5 L0.2,5.5 L0.2,80.5 L0.2,85.5 L0.2,90.5 L5.2,90.5 L10.2,90.5 L55.2,90.5 L60.2,90.5 L60.2,85.5 C60.1,82.8 57.9,80.5 55.2,80.5 Z" id="Shape" fill="url(#linearGradient-7)"></path>
                    </g>
                    <path d="M91,89.1 L83.6,86.4 L83.5,86.4 C82.7,86.1 82.1,85.5 81.8,84.7 L79,77.1 L76.2,84.6 C75.9,85.4 75.3,86 74.5,86.3 L74.4,86.3 L67,89 L74.4,91.7 C74.4,91.7 74.4,91.7 74.4,91.7 L74.5,91.8 C75.3,92.1 75.9,92.7 76.2,93.5 L79,101 L81.7,93.6 C82,92.7 82.7,92 83.6,91.7 C83.6,91.7 83.6,91.7 83.6,91.7 L91,89.1 Z" id="Shape" fill="#FFE888"></path>
                    <path d="M398.9,291.1 L393.4,289.1 L393.3,289.1 C392.7,288.9 392.2,288.4 392,287.8 L389.9,282.2 L387.8,287.8 C387.6,288.4 387.1,288.9 386.5,289.1 L386.4,289.1 L380.9,291.1 L386.4,293.1 C386.4,293.1 386.4,293.1 386.4,293.1 L386.5,293.1 C387.1,293.3 387.6,293.8 387.8,294.4 L389.9,300 L391.9,294.5 C392.1,293.8 392.7,293.3 393.3,293.1 C393.3,293.1 393.3,293.1 393.3,293.1 L398.9,291.1 Z" id="Shape" fill="#FFBD39"></path>
                    <path d="M22.6,187.3 L17.1,185.3 L17,185.3 C16.4,185.1 15.9,184.6 15.7,184 L13.6,178.4 L11.5,184 C11.3,184.6 10.8,185.1 10.2,185.3 L10.1,185.3 L4.6,187.3 L10.1,189.3 C10.1,189.3 10.1,189.3 10.1,189.3 L10.2,189.3 C10.8,189.5 11.3,190 11.5,190.6 L13.6,196.2 L15.6,190.7 C15.8,190 16.4,189.5 17,189.3 C17,189.3 17,189.3 17,189.3 L22.6,187.3 Z" id="Shape" fill="#FFBD39"></path>
                    <path d="M306.8,12.3 L301.3,10.3 L301.2,10.3 C300.6,10.1 300.1,9.6 299.9,9 L297.8,3.4 L295.7,9 C295.5,9.6 295,10.1 294.4,10.3 L294.3,10.3 L288.8,12.3 L294.3,14.3 C294.3,14.3 294.3,14.3 294.3,14.3 L294.4,14.3 C295,14.5 295.5,15 295.7,15.6 L297.8,21.2 L299.8,15.7 C300,15 300.6,14.5 301.2,14.3 C301.2,14.3 301.2,14.3 301.2,14.3 L306.8,12.3 Z" id="Shape" fill="#FFBD39"></path>
                    <path d="M308,155.8 L300.6,153.1 L300.5,153.1 C299.7,152.8 299.1,152.2 298.8,151.4 L296,143.9 L293.2,151.4 C292.9,152.2 292.3,152.8 291.5,153.1 L291.4,153.1 L284,155.8 L291.4,158.5 C291.4,158.5 291.4,158.5 291.4,158.5 L291.5,158.6 C292.3,158.9 292.9,159.5 293.2,160.3 L296,167.8 L298.7,160.4 C299,159.5 299.7,158.8 300.6,158.5 C300.6,158.5 300.6,158.5 300.6,158.5 L308,155.8 Z" id="Shape" fill="#FFE888"></path>
                    <path d="M306.8,253.3 L295.8,253.3 L295.8,264.3 C295.8,270.3 300.7,275.3 306.8,275.3 L315.8,275.3 L315.8,328.3 L317.8,328.3 L317.8,275.3 L317.8,264.3 C317.8,258.2 312.9,253.3 306.8,253.3 Z M306.7,273.3 C301.8,273.3 297.7,269.3 297.7,264.3 L297.7,255.3 L306.7,255.3 C311.6,255.3 315.7,259.3 315.7,264.3 L315.7,273.3 L306.7,273.3 Z" id="Shape" fill="#27C177"></path>
                    <path d="M381.9,197.3 C373.1,197.3 366,204.5 366,213.2 L366,229.3 L366,329.2 L368,329.2 L368,229.3 L382,229.3 C390.8,229.3 397.9,222.2 397.9,213.4 L397.9,197.3 L381.9,197.3 Z M395.9,213.4 C395.9,221.1 389.6,227.3 382,227.3 L367.9,227.3 L367.9,213.2 C367.9,205.5 374.2,199.3 381.8,199.3 L395.9,199.3 L395.9,213.4 Z" id="Shape" fill="#27C177"></path>
                    <path d="M325.6,72.3 L309.5,72.3 L309.5,88.4 C309.5,97.2 316.6,104.3 325.4,104.3 L339.5,104.3 L339.5,328.7 L341.5,328.7 L341.5,104.3 L341.5,88.2 C341.5,79.5 334.4,72.3 325.6,72.3 Z M325.5,102.3 C317.8,102.3 311.6,96 311.6,88.4 L311.6,74.3 L325.7,74.3 C333.4,74.3 339.6,80.6 339.6,88.2 L339.6,102.3 L325.5,102.3 Z" id="Shape" fill="url(#linearGradient-8)"></path>
                    <path d="M79.4,133.8 C70.6,133.8 63.5,141 63.5,149.7 L63.5,154.5 L63.5,165.8 L63.5,328.3 L65.5,328.3 L65.5,165.8 L79.6,165.8 C88.4,165.8 95.5,158.7 95.5,149.9 L95.5,133.8 L79.4,133.8 Z M93.4,149.9 C93.4,157.6 87.1,163.8 79.5,163.8 L65.4,163.8 L65.4,154.5 L65.4,149.7 C65.4,142 71.7,135.8 79.3,135.8 L93.4,135.8 L93.4,149.9 Z" id="Shape" fill="url(#linearGradient-9)"></path>
                    <path d="M17.7,50.2 L1.6,50.2 L1.6,66.3 C1.6,75.1 8.7,82.2 17.5,82.2 L31.6,82.2 L31.6,328.9 L33.6,328.9 L33.6,82.2 L33.6,73.4 L33.6,66.2 C33.6,57.3 26.5,50.2 17.7,50.2 Z M31.6,80.2 L17.6,80.2 C9.9,80.2 3.7,73.9 3.7,66.3 L3.7,52.2 L17.8,52.2 C25.5,52.2 31.7,58.5 31.7,66.1 L31.7,73.3 L31.7,80.2 L31.6,80.2 Z" id="Shape" fill="#27C177"></path>
                    <path d="M51.8,251.5 C51.8,237.7 40.6,226.5 26.8,226.5 C13,226.5 1.8,237.7 1.8,251.5 L1.8,251.5 L1.8,257.2 L1.8,257.2 C1.8,258.9 2,260.6 2.3,262.4 C5.2,275.9 18.4,284.5 31.9,281.7 C43.7,279.2 51.7,268.8 51.7,257.2 L51.7,257.2 L51.8,251.5 L51.8,251.5 Z" id="Shape" fill="#FFF48A"></path>
                    <path d="M162,313 C159.9,313 157.8,312.6 156.2,311.8 L149.3,308.4 C146.3,306.9 141.5,306.9 138.6,308.4 L132.1,311.6 C128.6,313.3 123,313.3 119.6,311.5 L108.6,305.9 C108.1,305.6 107.9,305 108.2,304.6 L108.2,304.6 C108.5,304.1 109.1,303.9 109.5,304.2 L120.5,309.8 C123.4,311.3 128.3,311.3 131.2,309.9 L138.2,306.4 C141.5,304.8 146.6,304.8 149.8,306.4 L156.7,309.8 C159.7,311.3 164.5,311.3 167.4,309.8 L174,306.5 C177.5,304.8 183.1,304.8 186.5,306.6 L192.7,309.7 C195.6,311.2 200.5,311.2 203.4,309.8 L210,306.5 C213.5,304.8 219.1,304.8 222.5,306.6 L228.7,309.7 C231.6,311.2 236.5,311.2 239.4,309.8 L246.4,306.3 C249.6,304.7 254.8,304.7 258,306.4 L264.7,309.8 C267.6,311.3 272.5,311.3 275.4,309.8 L286.7,304.1 C287.2,303.9 287.8,304.1 288,304.5 L288,304.5 C288.2,305 288,305.6 287.6,305.8 L275.9,311.7 C272.7,313.3 267.5,313.3 264.3,311.7 L257.6,308.3 C254.7,306.8 249.8,306.8 246.9,308.3 L240.3,311.6 C236.8,313.3 231.2,313.3 227.8,311.5 L221.6,308.4 C218.7,306.9 213.8,306.9 210.9,308.3 L204.3,311.6 C200.8,313.3 195.2,313.3 191.8,311.5 L185.6,308.4 C182.7,306.9 177.8,306.9 174.9,308.3 L167.9,311.8 C166.1,312.6 164,313 162,313 Z" id="Shape" fill="#AEFDFF"></path>
                    <path d="M162,315 C159.9,315 157.8,314.6 156.2,313.8 L149.3,310.4 C146.3,308.9 141.5,308.9 138.6,310.4 L132.1,313.6 C128.6,315.3 123,315.3 119.6,313.5 L108.6,307.9 C108.1,307.6 107.9,307 108.2,306.6 L108.2,306.6 C108.5,306.1 109.1,305.9 109.5,306.2 L120.5,311.8 C123.4,313.3 128.3,313.3 131.2,311.9 L138.2,308.4 C141.5,306.8 146.6,306.8 149.8,308.4 L156.7,311.8 C159.7,313.3 164.5,313.3 167.4,311.8 L174,308.5 C177.5,306.8 183.1,306.8 186.5,308.6 L192.7,311.7 C195.6,313.2 200.5,313.2 203.4,311.8 L210,308.5 C213.5,306.8 219.1,306.8 222.5,308.6 L228.7,311.7 C231.6,313.2 236.5,313.2 239.4,311.8 L246.4,308.3 C249.6,306.7 254.8,306.7 258,308.4 L264.7,311.8 C267.6,313.3 272.5,313.3 275.4,311.8 L286.7,306.1 C287.2,305.9 287.8,306.1 288,306.5 L288,306.5 C288.2,307 288,307.6 287.6,307.8 L275.9,313.7 C272.7,315.3 267.5,315.3 264.3,313.7 L257.6,310.3 C254.7,308.8 249.8,308.8 246.9,310.3 L240.3,313.6 C236.8,315.3 231.2,315.3 227.8,313.5 L221.6,310.4 C218.7,308.9 213.8,308.9 210.9,310.3 L204.3,313.6 C200.8,315.3 195.2,315.3 191.8,313.5 L185.6,310.4 C182.7,308.9 177.8,308.9 174.9,310.3 L167.9,313.8 C166.1,314.6 164,315 162,315 Z" id="Shape" fill="#DEEEFC"></path>
                    <path d="M26.8,277.6 C16.6,277.6 7.8,271.7 3.6,263.2 C6.8,275.6 19.2,283.4 31.8,280.7 C40.8,278.8 47.8,271.9 50.1,263.2 C45.8,271.8 37,277.6 26.8,277.6 Z" id="Shape" fill="#FFEA52"></path>
                    <path d="M52.8,251.5 C52.8,237.2 41.1,225.5 26.8,225.5 C12.5,225.5 0.8,237.2 0.8,251.5 L0.8,251.5 L0.8,258.2 L0.8,258.2 C0.9,259.7 1,261.1 1.3,262.6 C2.7,269.4 6.7,275.2 12.5,279 C16.8,281.8 21.7,283.2 26.6,283.2 C28.4,283.2 30.2,283 32,282.6 C43.6,280.1 52.2,270 52.6,258.2 L52.8,251.5 L52.8,251.5 Z M26.8,227.5 C40,227.5 50.8,238.3 50.8,251.5 C50.8,264.7 40,275.5 26.8,275.5 C13.6,275.5 2.8,264.7 2.8,251.5 C2.8,238.2 13.6,227.5 26.8,227.5 Z M31.8,280.6 C19.2,283.3 6.8,275.5 3.6,263.1 C7.9,271.6 16.7,277.5 26.8,277.5 C36.9,277.5 45.7,271.7 50,263.2 C47.8,271.8 40.8,278.7 31.8,280.6 Z" id="Shape" fill="#F15A29"></path>
                    <rect id="Rectangle-path" fill="#FFE888" transform="translate(91.058490, 244.831480) rotate(-45.000000) translate(-91.058490, -244.831480) " x="84.2085557" y="237.981546" width="13.6998686" height="13.6998686"></rect>
                    <rect id="Rectangle-path" fill="#FFE888" transform="translate(377.382690, 58.487110) rotate(-45.000000) translate(-377.382690, -58.487110) " x="367.682783" y="48.787203" width="19.399814" height="19.399814"></rect>
                </g>
            </g>
        </g>
    </g>
</svg>