<?xml version="1.0" encoding="UTF-8"?>
<svg width="172px" height="398px" viewBox="0 0 172 398" version="1.1" xmlns="http://www.w3.org/2000/svg" xmlns:xlink="http://www.w3.org/1999/xlink">
    <!-- Generator: Sketch 46.1 (44463) - http://www.bohemiancoding.com/sketch -->
    <title>leafs right</title>
    <desc>Created with Sketch.</desc>
    <defs>
        <linearGradient x1="100%" y1="75.5851865%" x2="84.5849634%" y2="-7.33604901%" id="linearGradient-1">
            <stop stop-color="#9CEDD8" offset="0%"></stop>
            <stop stop-color="#63D5B0" offset="100%"></stop>
        </linearGradient>
        <linearGradient x1="50%" y1="0%" x2="50%" y2="100%" id="linearGradient-2">
            <stop stop-color="#9CEDD8" offset="0%"></stop>
            <stop stop-color="#63D5B0" offset="100%"></stop>
        </linearGradient>
    </defs>
    <g id="Page-1" stroke="none" stroke-width="1" fill="none" fill-rule="evenodd">
        <g id="WTLanding_softlaunch_vAug6" transform="translate(-821.000000, -5443.000000)">
            <g id="leafs-right" transform="translate(784.000000, 5441.000000)">
                <path d="M54.8657914,233.540136 L39.0513539,233.540136 L39.0513539,217.730702 C39.0513539,209.085997 46.0849961,202.052355 54.7297016,202.052355 L70.5401365,202.052355 L70.5401365,217.865791 C70.5401365,226.508496 63.5084956,233.540136 54.8657914,233.540136 L54.8657914,233.540136 Z M54.7297016,200 C44.9542498,200 37,207.95425 37,217.730702 L37,400 L39.0513539,400 L39.0513539,235.592491 L54.8657914,235.592491 C64.6392419,235.592491 72.5904897,227.640243 72.5904897,217.865791 L72.5904897,200 L54.7297016,200 Z" id="Fill-1-Copy-2" fill="url(#linearGradient-1)" transform="translate(54.795245, 300.000000) scale(-1, 1) translate(-54.795245, -300.000000) "></path>
                <path d="M190.103343,133.986102 L174.07863,133.986102 L174.07863,117.966458 C174.07863,109.206808 181.205794,102.079644 189.965444,102.079644 L205.986102,102.079644 L205.986102,118.103343 C205.986102,126.860965 198.860965,133.986102 190.103343,133.986102 L190.103343,133.986102 Z M189.965444,100 C180.060013,100 172,108.060013 172,117.966458 L172,400 L174.07863,400 L174.07863,136.065746 L190.103343,136.065746 C200.006746,136.065746 208.063718,128.00776 208.063718,118.103343 L208.063718,100 L189.965444,100 Z" id="Fill-1-Copy-4" fill="url(#linearGradient-1)"></path>
                <path d="M129.859923,35.5291202 L114.05068,35.5291202 L114.05068,19.7248786 C114.05068,11.0830125 121.082012,4.05168046 129.723878,4.05168046 L145.52912,4.05168046 L145.52912,19.8599234 C145.52912,28.4997889 138.499789,35.5291202 129.859923,35.5291202 L129.859923,35.5291202 Z M129.723878,2 C119.951637,2 112,9.95163723 112,19.7248786 L112,400 L114.05068,400 L114.05068,37.5808007 L129.859923,37.5808007 C139.630164,37.5808007 147.5788,29.6311641 147.5788,19.8599234 L147.5788,2 L129.723878,2 Z" id="Fill-1-Copy-3" fill="url(#linearGradient-2)"></path>
            </g>
        </g>
    </g>
</svg>